<svg id="visual" viewBox="0 0 900 600" width="900" height="600" xmlns="http://www.w3.org/2000/svg" xmlns:xlink="http://www.w3.org/1999/xlink" version="1.1"><rect x="0" y="0" width="900" height="600" fill="#000000"></rect><path d="M0 391L129 428L257 423L386 437L514 356L643 367L771 363L900 386L900 601L771 601L643 601L514 601L386 601L257 601L129 601L0 601Z" fill="#070401"></path><path d="M0 476L129 453L257 439L386 477L514 412L643 424L771 411L900 445L900 601L771 601L643 601L514 601L386 601L257 601L129 601L0 601Z" fill="#0d0a07"></path><path d="M0 438L129 447L257 494L386 444L514 459L643 509L771 507L900 483L900 601L771 601L643 601L514 601L386 601L257 601L129 601L0 601Z" fill="#120f0d"></path><path d="M0 488L129 532L257 540L386 520L514 507L643 488L771 531L900 538L900 601L771 601L643 601L514 601L386 601L257 601L129 601L0 601Z" fill="#161312"></path><path d="M0 558L129 558L257 529L386 573L514 528L643 539L771 529L900 563L900 601L771 601L643 601L514 601L386 601L257 601L129 601L0 601Z" fill="#191716"></path></svg>